<svg width="17" height="17" viewBox="0 0 17 17" fill="none" xmlns="http://www.w3.org/2000/svg">
<path d="M15.936 7.02441H9.93604V1.02441C9.93604 0.759198 9.83068 0.504844 9.64314 0.317307C9.45561 0.129771 9.20125 0.0244141 8.93604 0.0244141C8.67082 0.0244141 8.41646 0.129771 8.22893 0.317307C8.04139 0.504844 7.93604 0.759198 7.93604 1.02441V7.02441H1.93604C1.67082 7.02441 1.41646 7.12977 1.22893 7.31731C1.04139 7.50484 0.936035 7.7592 0.936035 8.02441C0.936035 8.28963 1.04139 8.54398 1.22893 8.73152C1.41646 8.91906 1.67082 9.02441 1.93604 9.02441H7.93604V15.0244C7.93604 15.2896 8.04139 15.544 8.22893 15.7315C8.41646 15.9191 8.67082 16.0244 8.93604 16.0244C9.20125 16.0244 9.45561 15.9191 9.64314 15.7315C9.83068 15.544 9.93604 15.2896 9.93604 15.0244V9.02441H15.936C16.2013 9.02441 16.4556 8.91906 16.6431 8.73152C16.8307 8.54398 16.936 8.28963 16.936 8.02441C16.936 7.7592 16.8307 7.50484 16.6431 7.31731C16.4556 7.12977 16.2013 7.02441 15.936 7.02441Z" fill="#FF707F"/>
</svg>
