<svg width="46" height="47" viewBox="0 0 46 47" fill="none" xmlns="http://www.w3.org/2000/svg">
<g filter="url(#filter0_d_14_154)">
<path d="M4.58673 12.6627C4.58673 7.69214 8.61617 3.6627 13.5867 3.6627H32.9065C37.8771 3.6627 41.9065 7.69214 41.9065 12.6627V27.104C41.9065 33.1791 36.9817 38.104 30.9065 38.104H15.5867C9.5116 38.104 4.58673 33.1791 4.58673 27.104V12.6627Z" fill="#80A7B8"/>
<path d="M4.58673 12.623C4.58673 7.67438 8.59841 3.6627 13.5471 3.6627H32.9462C37.8948 3.6627 41.9065 7.67438 41.9065 12.623V12.623H4.58673V12.623Z" fill="white"/>
<ellipse cx="13.9869" cy="6.88285" rx="2.6657" ry="2.6601" fill="#BDA6A6"/>
<rect x="12.1629" y="0.022583" width="3.6478" height="8.40031" rx="1.8239" fill="#6A4747"/>
<rect x="12.1629" y="0.022583" width="3.6478" height="8.40031" rx="1.8239" fill="#6A4747"/>
<rect x="12.1629" y="0.022583" width="3.6478" height="8.40031" rx="1.8239" fill="#80A7B8"/>
<ellipse cx="32.5065" cy="6.88285" rx="2.6657" ry="2.6601" fill="#BDA6A6"/>
<rect x="30.6825" y="0.022583" width="3.6478" height="8.40031" rx="1.8239" fill="#6A4747"/>
<rect x="30.6825" y="0.022583" width="3.6478" height="8.40031" rx="1.8239" fill="#6A4747"/>
<rect x="30.6825" y="0.022583" width="3.6478" height="8.40031" rx="1.8239" fill="#80A7B8"/>
<rect x="12.4435" y="16.5432" width="3.9284" height="3.92015" fill="white"/>
<rect x="18.3361" y="16.5432" width="3.9284" height="3.92015" fill="white"/>
<rect x="24.2288" y="16.5432" width="3.9284" height="3.92015" fill="white"/>
<rect x="30.1214" y="16.5432" width="3.9284" height="3.92015" fill="white"/>
<rect x="12.4435" y="22.7034" width="3.9284" height="3.92015" fill="white"/>
<rect x="18.3361" y="22.7034" width="3.9284" height="3.92015" fill="white"/>
<rect x="24.2288" y="22.7034" width="3.9284" height="3.92015" fill="white"/>
<rect x="30.1214" y="22.7034" width="3.9284" height="3.92015" fill="white"/>
<rect x="12.4435" y="28.8636" width="3.9284" height="3.92015" fill="white"/>
<rect x="18.3361" y="28.8636" width="3.9284" height="3.92015" fill="white"/>
<rect x="24.2288" y="28.8636" width="3.9284" height="3.92015" fill="white"/>
<rect x="30.1214" y="28.8636" width="3.9284" height="3.92015" fill="white"/>
</g>
<defs>
<filter id="filter0_d_14_154" x="0.586731" y="0.022583" width="45.3198" height="46.0814" filterUnits="userSpaceOnUse" color-interpolation-filters="sRGB">
<feFlood flood-opacity="0" result="BackgroundImageFix"/>
<feColorMatrix in="SourceAlpha" type="matrix" values="0 0 0 0 0 0 0 0 0 0 0 0 0 0 0 0 0 0 127 0" result="hardAlpha"/>
<feOffset dy="4"/>
<feGaussianBlur stdDeviation="2"/>
<feComposite in2="hardAlpha" operator="out"/>
<feColorMatrix type="matrix" values="0 0 0 0 0 0 0 0 0 0 0 0 0 0 0 0 0 0 0.25 0"/>
<feBlend mode="normal" in2="BackgroundImageFix" result="effect1_dropShadow_14_154"/>
<feBlend mode="normal" in="SourceGraphic" in2="effect1_dropShadow_14_154" result="shape"/>
</filter>
</defs>
</svg>
