<svg width="19" height="21" viewBox="0 0 19 21" fill="none" xmlns="http://www.w3.org/2000/svg">
<path d="M17.9361 6.02393L11.9361 0.763932C11.3861 0.271977 10.6741 0 9.93613 0C9.1982 0 8.48615 0.271977 7.93613 0.763932L1.93613 6.02393C1.6185 6.30801 1.36503 6.65649 1.1926 7.04618C1.02017 7.43586 0.932743 7.85781 0.93613 8.28393V17.0239C0.93613 17.8196 1.2522 18.5826 1.81481 19.1453C2.37742 19.7079 3.14048 20.0239 3.93613 20.0239H15.9361C16.7318 20.0239 17.4948 19.7079 18.0575 19.1453C18.6201 18.5826 18.9361 17.8196 18.9361 17.0239V8.27393C18.9381 7.84949 18.85 7.42947 18.6776 7.04161C18.5052 6.65375 18.2525 6.30689 17.9361 6.02393ZM11.9361 18.0239H7.93613V13.0239C7.93613 12.7587 8.04149 12.5044 8.22902 12.3168C8.41656 12.1293 8.67091 12.0239 8.93613 12.0239H10.9361C11.2013 12.0239 11.4557 12.1293 11.6432 12.3168C11.8308 12.5044 11.9361 12.7587 11.9361 13.0239V18.0239ZM16.9361 17.0239C16.9361 17.2891 16.8308 17.5435 16.6432 17.731C16.4557 17.9186 16.2013 18.0239 15.9361 18.0239H13.9361V13.0239C13.9361 12.2283 13.6201 11.4652 13.0575 10.9026C12.4948 10.34 11.7318 10.0239 10.9361 10.0239H8.93613C8.14048 10.0239 7.37742 10.34 6.81481 10.9026C6.2522 11.4652 5.93613 12.2283 5.93613 13.0239V18.0239H3.93613C3.67091 18.0239 3.41656 17.9186 3.22902 17.731C3.04149 17.5435 2.93613 17.2891 2.93613 17.0239V8.27393C2.93631 8.13195 2.96672 7.99163 3.02535 7.86231C3.08397 7.73299 3.16946 7.61764 3.27613 7.52393L9.27613 2.27393C9.45862 2.11361 9.69322 2.0252 9.93613 2.0252C10.179 2.0252 10.4136 2.11361 10.5961 2.27393L16.5961 7.52393C16.7028 7.61764 16.7883 7.73299 16.8469 7.86231C16.9055 7.99163 16.936 8.13195 16.9361 8.27393V17.0239Z" fill="#FF707F"/>
</svg>
