<svg width="16" height="20" viewBox="0 0 16 20" fill="none" xmlns="http://www.w3.org/2000/svg">
<path d="M14.7882 1.00006C14.5075 0.686209 14.1639 0.434969 13.7797 0.262679C13.3955 0.090389 12.9793 0.000907732 12.5582 5.52823e-05H3.01821C2.59487 -0.00251463 2.17578 0.0845434 1.78849 0.255506C1.4012 0.42647 1.05448 0.677466 0.771117 0.991997C0.487756 1.30653 0.274173 1.67747 0.144408 2.08044C0.0146434 2.48341 -0.0283643 2.90928 0.0182117 3.33006L1.57821 17.3301C1.65978 18.0672 2.01151 18.748 2.56553 19.2411C3.11955 19.7342 3.83657 20.0046 4.57821 20.0001H10.9982C11.7399 20.0046 12.4569 19.7342 13.0109 19.2411C13.5649 18.748 13.9166 18.0672 13.9982 17.3301L15.5582 3.33006C15.6013 2.90935 15.555 2.48428 15.4223 2.08272C15.2896 1.68117 15.0735 1.31221 14.7882 1.00006ZM11.9882 17.1101C11.961 17.3558 11.8438 17.5827 11.6591 17.7471C11.4744 17.9114 11.2354 18.0016 10.9882 18.0001H4.57821C4.331 18.0016 4.09199 17.9114 3.90732 17.7471C3.72265 17.5827 3.6054 17.3558 3.57821 17.1101L2.56821 8.00006H13.0082L11.9882 17.1101ZM13.2282 6.00006H2.34821L2.02821 3.11006C2.01246 2.96976 2.0266 2.82772 2.06969 2.69328C2.11278 2.55885 2.18384 2.43506 2.27821 2.33006C2.37171 2.22646 2.48585 2.14358 2.61329 2.08675C2.74074 2.02992 2.87867 2.00039 3.01821 2.00006H12.5582C12.6978 2.00039 12.8357 2.02992 12.9631 2.08675C13.0906 2.14358 13.2047 2.22646 13.2982 2.33006C13.3926 2.43506 13.4636 2.55885 13.5067 2.69328C13.5498 2.82772 13.564 2.96976 13.5482 3.11006L13.2282 6.00006ZM9.78821 16.0001C10.0534 16.0001 10.3078 15.8947 10.4953 15.7072C10.6829 15.5196 10.7882 15.2653 10.7882 15.0001V11.0001C10.7882 10.7348 10.6829 10.4805 10.4953 10.2929C10.3078 10.1054 10.0534 10.0001 9.78821 10.0001C9.523 10.0001 9.26864 10.1054 9.08111 10.2929C8.89357 10.4805 8.78821 10.7348 8.78821 11.0001V15.0001C8.78821 15.2653 8.89357 15.5196 9.08111 15.7072C9.26864 15.8947 9.523 16.0001 9.78821 16.0001ZM5.78821 16.0001C6.05343 16.0001 6.30778 15.8947 6.49532 15.7072C6.68285 15.5196 6.78821 15.2653 6.78821 15.0001V11.0001C6.78821 10.7348 6.68285 10.4805 6.49532 10.2929C6.30778 10.1054 6.05343 10.0001 5.78821 10.0001C5.523 10.0001 5.26864 10.1054 5.08111 10.2929C4.89357 10.4805 4.78821 10.7348 4.78821 11.0001V15.0001C4.78821 15.2653 4.89357 15.5196 5.08111 15.7072C5.26864 15.8947 5.523 16.0001 5.78821 16.0001Z" fill="#FF5050"/>
</svg>
