<svg width="20" height="22" viewBox="0 0 20 22" fill="none" xmlns="http://www.w3.org/2000/svg">
<path d="M13.646 11.7155C14.6264 10.9442 15.342 9.88642 15.6933 8.68944C16.0445 7.49246 16.014 6.21576 15.6058 5.03696C15.1977 3.85817 14.4323 2.83589 13.4161 2.11235C12.3999 1.38881 11.1835 1 9.93603 1C8.68858 1 7.47215 1.38881 6.45596 2.11235C5.43978 2.83589 4.67438 3.85817 4.26624 5.03696C3.85811 6.21576 3.82754 7.49246 4.17879 8.68944C4.53004 9.88642 5.24564 10.9442 6.22603 11.7155C4.54611 12.3885 3.08032 13.5048 1.98492 14.9454C0.88953 16.386 0.205595 18.0968 0.00603184 19.8955C-0.00841357 20.0268 0.00314838 20.1597 0.0400573 20.2866C0.0769662 20.4134 0.138499 20.5317 0.221143 20.6348C0.388051 20.843 0.630815 20.9763 0.896032 21.0055C1.16125 21.0347 1.42719 20.9573 1.63536 20.7904C1.84352 20.6235 1.97686 20.3807 2.00603 20.1155C2.22562 18.1607 3.15772 16.3553 4.62425 15.0443C6.09078 13.7333 7.98893 13.0085 9.95603 13.0085C11.9231 13.0085 13.8213 13.7333 15.2878 15.0443C16.7543 16.3553 17.6864 18.1607 17.906 20.1155C17.9332 20.3612 18.0505 20.5882 18.2351 20.7525C18.4198 20.9169 18.6588 21.007 18.906 21.0055H19.016C19.2782 20.9753 19.5178 20.8428 19.6826 20.6367C19.8474 20.4307 19.9241 20.1679 19.896 19.9055C19.6955 18.1017 19.0079 16.3865 17.9069 14.9437C16.8059 13.5009 15.3329 12.385 13.646 11.7155ZM9.93603 11.0055C9.14491 11.0055 8.37155 10.7709 7.71375 10.3314C7.05595 9.89185 6.54326 9.26713 6.24051 8.53623C5.93776 7.80533 5.85855 7.00106 6.01289 6.22513C6.16723 5.44921 6.44059 5.34262 7 4.78321C7.55941 4.2238 8.22408 4.93756 9 4.78321C9.77592 4.62887 10.7691 4.48046 11.5 4.78321C12.2309 5.08597 12.8224 4.12542 13.2619 4.78321C13.7014 5.44101 13.936 6.21437 13.936 7.0055C13.936 8.06636 13.5146 9.08378 12.7645 9.83392C12.0143 10.5841 10.9969 11.0055 9.93603 11.0055Z" fill="#FF707F"/>
<path d="M6 5H15" stroke="white" stroke-linecap="round"/>
<path d="M14 3.00004C12 0.500013 7 1.0001 6.50001 3.00004C6.19676 4.21299 8 5.00005 8 5.00005L15.0734 5.00003C15.0734 5.00003 14.7113 3.88911 14 3.00004Z" fill="#4FAFD9" stroke="#4FAFD9"/>
<path d="M7.75 4.5C7.75 5.74264 6.74264 6.75 5.5 6.75C4.25736 6.75 3.25 5.74264 3.25 4.5C3.25 3.25736 4.25736 2.25 5.5 2.25C6.74264 2.25 7.75 3.25736 7.75 4.5Z" fill="#4FAFD9" stroke="white" stroke-width="0.5"/>
</svg>
