<svg width="22" height="23" viewBox="0 0 22 23" fill="none" xmlns="http://www.w3.org/2000/svg">
<path d="M13.646 10.7341C14.6264 9.96271 15.342 8.90497 15.6933 7.70799C16.0445 6.51101 16.014 5.23432 15.6058 4.05552C15.1977 2.87672 14.4323 1.85444 13.4161 1.13091C12.3999 0.407369 11.1835 0.0185547 9.93603 0.0185547C8.68858 0.0185547 7.47215 0.407369 6.45596 1.13091C5.43978 1.85444 4.67438 2.87672 4.26624 4.05552C3.85811 5.23432 3.82754 6.51101 4.17879 7.70799C4.53004 8.90497 5.24564 9.96271 6.22603 10.7341C4.54611 11.4071 3.08032 12.5234 1.98492 13.964C0.88953 15.4045 0.205595 17.1154 0.00603184 18.914C-0.00841357 19.0454 0.00314838 19.1783 0.0400573 19.3051C0.0769662 19.432 0.138499 19.5503 0.221143 19.6534C0.388051 19.8615 0.630815 19.9949 0.896032 20.024C1.16125 20.0532 1.42719 19.9758 1.63536 19.8089C1.84352 19.642 1.97686 19.3993 2.00603 19.1341C2.22562 17.1792 3.15772 15.3739 4.62425 14.0628C6.09078 12.7518 7.98893 12.0271 9.95603 12.0271C11.9231 12.0271 13.8213 12.7518 15.2878 14.0628C16.7543 15.3739 17.6864 17.1792 17.906 19.1341C17.9332 19.3798 18.0505 19.6067 18.2351 19.7711C18.4198 19.9354 18.6588 20.0255 18.906 20.024H19.016C19.2782 19.9939 19.5178 19.8613 19.6826 19.6553C19.8474 19.4493 19.9241 19.1864 19.896 18.924C19.6955 17.1203 19.0079 15.405 17.9069 13.9623C16.8059 12.5195 15.3329 11.4035 13.646 10.7341ZM9.93603 10.0241C9.14491 10.0241 8.37155 9.78945 7.71375 9.34993C7.05595 8.9104 6.54326 8.28569 6.24051 7.55478C5.93776 6.82388 5.85855 6.01961 6.01289 5.24369C6.16723 4.46777 6.54819 3.75503 7.1076 3.19562C7.66701 2.63621 8.37975 2.25525 9.15567 2.10091C9.93159 1.94657 10.7359 2.02578 11.4668 2.32853C12.1977 2.63128 12.8224 3.14397 13.2619 3.80177C13.7014 4.45957 13.936 5.23293 13.936 6.02405C13.936 7.08492 13.5146 8.10233 12.7645 8.85248C12.0143 9.60262 10.9969 10.0241 9.93603 10.0241Z" fill="#FF707F"/>
<mask id="path-2-outside-1_34_3" maskUnits="userSpaceOnUse" x="12" y="12" width="10" height="11" fill="black">
<rect fill="white" x="12" y="12" width="10" height="11"/>
<path d="M20.8022 16.3579C21.6392 14.0638 19.6862 11.9593 17.4541 13.7632L17.1041 14.0638L16.6171 13.7632C13.548 11.6587 12.432 14.3645 13.269 16.3579C13.6761 17.3274 13.8601 18.3753 14.1061 19.1747C14.352 19.9742 14.9804 21.1752 15.8673 20.9786C16.7695 20.7786 16.7225 19.6048 17.1041 18.8145L17.1751 18.8741C17.5567 19.6644 17.389 20.7786 18.2912 20.9786C19.1781 21.1752 19.7193 19.9742 19.9652 19.1747C20.2111 18.3753 20.3557 17.3548 20.8022 16.3579Z"/>
</mask>
<path d="M20.8022 16.3579C21.6392 14.0638 19.6862 11.9593 17.4541 13.7632L17.1041 14.0638L16.6171 13.7632C13.548 11.6587 12.432 14.3645 13.269 16.3579C13.6761 17.3274 13.8601 18.3753 14.1061 19.1747C14.352 19.9742 14.9804 21.1752 15.8673 20.9786C16.7695 20.7786 16.7225 19.6048 17.1041 18.8145L17.1751 18.8741C17.5567 19.6644 17.389 20.7786 18.2912 20.9786C19.1781 21.1752 19.7193 19.9742 19.9652 19.1747C20.2111 18.3753 20.3557 17.3548 20.8022 16.3579Z" fill="#FF707F"/>
<path d="M17.4541 13.7632L16.8256 12.9854C16.8178 12.9917 16.8102 12.998 16.8026 13.0045L17.4541 13.7632ZM20.8022 16.3579L21.7148 16.7667C21.7245 16.745 21.7335 16.723 21.7416 16.7007L20.8022 16.3579ZM19.9652 19.1747L19.0094 18.8807L19.0094 18.8807L19.9652 19.1747ZM18.2912 20.9786L18.5076 20.0023L18.5076 20.0023L18.2912 20.9786ZM17.1751 18.8741L18.0757 18.4393C18.0141 18.3118 17.9261 18.1988 17.8176 18.1078L17.1751 18.8741ZM16.6171 13.7632L16.0516 14.5879C16.0648 14.5969 16.0782 14.6057 16.0918 14.6141L16.6171 13.7632ZM13.269 16.3579L12.347 16.7451L12.347 16.7451L13.269 16.3579ZM14.1061 19.1747L15.0619 18.8807L15.0619 18.8807L14.1061 19.1747ZM15.8673 20.9786L15.6508 20.0023L15.6508 20.0023L15.8673 20.9786ZM17.1041 18.8145L17.7465 18.0482C17.5102 17.85 17.1956 17.772 16.894 17.8368C16.5924 17.9016 16.3376 18.1019 16.2035 18.3797L17.1041 18.8145ZM17.1041 14.0638L16.5787 14.9147C16.9492 15.1435 17.4252 15.1062 17.7556 14.8225L17.1041 14.0638ZM18.0827 14.5409C18.5129 14.1932 18.8542 14.0936 19.079 14.0841C19.2956 14.0749 19.4719 14.1446 19.6157 14.2721C19.9166 14.5388 20.1672 15.1809 19.8628 16.0152L21.7416 16.7007C22.2742 15.2409 21.9668 13.6836 20.9424 12.7755C20.4236 12.3156 19.7454 12.054 18.9942 12.0859C18.2512 12.1174 17.5114 12.4312 16.8256 12.9854L18.0827 14.5409ZM19.8896 15.9491C19.632 16.5242 19.4676 17.0923 19.3397 17.5925C19.2026 18.1281 19.1236 18.5095 19.0094 18.8807L20.921 19.4688C21.0527 19.0405 21.1689 18.5119 21.2773 18.0882C21.3947 17.6291 21.5259 17.1885 21.7148 16.7667L19.8896 15.9491ZM19.0094 18.8807C18.8984 19.2414 18.7415 19.6156 18.5636 19.8568C18.4773 19.9739 18.4223 20.0094 18.4148 20.0135C18.4146 20.0136 18.418 20.0117 18.4252 20.0092C18.4324 20.0067 18.4422 20.004 18.4539 20.0022C18.48 19.9981 18.5001 20.0006 18.5076 20.0023L18.0748 21.9549C19.0967 22.1814 19.8067 21.5411 20.1735 21.0436C20.5494 20.5336 20.786 19.9076 20.921 19.4688L19.0094 18.8807ZM18.5076 20.0023C18.5036 20.0014 18.5427 20.0171 18.5676 20.048C18.5716 20.0529 18.5417 20.0164 18.4971 19.8651C18.4474 19.6963 18.4218 19.5516 18.3565 19.2768C18.3004 19.0413 18.2196 18.7375 18.0757 18.4393L16.2746 19.3089C16.3214 19.4058 16.3627 19.5377 16.4108 19.7396C16.4494 19.9023 16.5099 20.1967 16.5787 20.4303C16.6527 20.6814 16.7738 21.0103 17.012 21.305C17.2712 21.6258 17.6277 21.8558 18.0748 21.9549L18.5076 20.0023ZM17.1826 12.9384C16.3231 12.349 15.4894 12.0174 14.7028 12.0007C13.8766 11.9831 13.1868 12.3176 12.7134 12.8796C11.837 13.9203 11.8359 15.5278 12.347 16.7451L14.1911 15.9708C13.8652 15.1946 14.0036 14.4525 14.2432 14.168C14.3278 14.0675 14.4402 13.9955 14.6602 14.0002C14.9199 14.0057 15.3766 14.1251 16.0516 14.5879L17.1826 12.9384ZM12.347 16.7451C12.5234 17.1651 12.6572 17.6163 12.7812 18.0855C12.8975 18.5259 13.0198 19.0446 13.1503 19.4688L15.0619 18.8807C14.9464 18.5054 14.8537 18.1004 14.7148 17.5746C14.5835 17.0777 14.4217 16.5202 14.1911 15.9708L12.347 16.7451ZM13.1503 19.4688C13.2948 19.9388 13.5607 20.5659 13.9636 21.0726C14.3497 21.5581 15.0781 22.1778 16.0837 21.9549L15.6508 20.0023C15.7696 19.976 15.7403 20.0934 15.529 19.8278C15.3345 19.5833 15.1632 19.2101 15.0619 18.8807L13.1503 19.4688ZM16.0837 21.9549C17.0532 21.74 17.4398 20.9673 17.6228 20.4537C17.7122 20.2031 17.7854 19.9197 17.8391 19.7297C17.9008 19.5112 17.95 19.3623 18.0046 19.2493L16.2035 18.3797C16.0673 18.6619 15.9793 18.9561 15.9143 19.1861C15.8413 19.4447 15.7984 19.6155 15.739 19.7821C15.6822 19.9412 15.6412 20.0012 15.6268 20.0181C15.6231 20.0224 15.6275 20.0164 15.6399 20.0088C15.6528 20.0009 15.6594 20.0004 15.6508 20.0023L16.0837 21.9549ZM17.8176 18.1078L17.7465 18.0482L16.4616 19.5808L16.5326 19.6404L17.8176 18.1078ZM16.8026 13.0045L16.4525 13.3052L17.7556 14.8225L18.1056 14.5218L16.8026 13.0045ZM17.6294 13.2129L17.1425 12.9123L16.0918 14.6141L16.5787 14.9147L17.6294 13.2129Z" fill="white" mask="url(#path-2-outside-1_34_3)"/>
</svg>
