<svg width="20" height="21" viewBox="0 0 20 21" fill="none" xmlns="http://www.w3.org/2000/svg">
<path d="M19.9672 5.26344C19.9878 5.24873 20.0003 5.22502 19.9994 5.19972C19.9954 5.08184 19.9705 4.9655 19.9258 4.85611C19.876 4.73427 19.8027 4.62346 19.71 4.53002L15.47 0.290017C15.3766 0.197335 15.2658 0.12401 15.1439 0.0742455C15.0221 0.0244809 14.8916 -0.000744179 14.76 1.67143e-05C14.6284 -0.000744179 14.4979 0.0244809 14.3761 0.0742455C14.2543 0.12401 14.1435 0.197335 14.05 0.290017L11.22 3.12002L0.290017 14.05C0.197335 14.1435 0.12401 14.2543 0.0742455 14.3761C0.0244809 14.4979 -0.000744179 14.6284 1.67143e-05 14.76V19C1.67143e-05 19.2652 0.105374 19.5196 0.29291 19.7071C0.480446 19.8947 0.7348 20 1.00002 20H5.24002C5.37994 20.0076 5.51991 19.9857 5.65084 19.9358C5.78176 19.8858 5.90073 19.8089 6.00002 19.71L16.87 8.78002L19.71 6.00002C19.7695 5.93688 19.8218 5.86752 19.866 5.79325C19.9132 5.71413 19.9388 5.62346 19.9371 5.53137C19.9366 5.505 19.935 5.47864 19.9325 5.45236C19.931 5.43749 19.9309 5.42252 19.9319 5.40762C19.9335 5.38365 19.9339 5.35962 19.9331 5.33563C19.9321 5.30737 19.9442 5.27988 19.9672 5.26344V5.26344ZM5.41613 17.4139C5.04085 17.7892 4.53186 18 4.00113 18V18C2.89594 18 2.00002 17.1041 2.00002 15.9989V15.9989C2.00002 15.4682 2.21085 14.9592 2.58613 14.5839L10.515 6.65502C11.2965 5.87353 12.5635 5.87353 13.345 6.65502V6.65502C14.1265 7.4365 14.1265 8.70353 13.345 9.48502L5.41613 17.4139ZM16.8775 5.94751C16.4872 6.34061 15.8517 6.34173 15.46 5.95001L14.05 4.54002C13.6583 4.1483 13.6594 3.51286 14.0525 3.12253V3.12253C14.4437 2.73414 15.0753 2.73526 15.465 3.12502L16.875 4.53501C17.2648 4.92478 17.2659 5.55637 16.8775 5.94751V5.94751Z" fill="#FF707F"/>
</svg>
