<svg width="22" height="22" viewBox="0 0 22 22" fill="none" xmlns="http://www.w3.org/2000/svg">
<path d="M13.646 10.7155C14.6264 9.94415 15.342 8.88642 15.6933 7.68944C16.0445 6.49246 16.014 5.21576 15.6058 4.03696C15.1977 2.85817 14.4323 1.83589 13.4161 1.11235C12.3999 0.388815 11.1835 0 9.93603 0C8.68858 0 7.47215 0.388815 6.45596 1.11235C5.43978 1.83589 4.67438 2.85817 4.26624 4.03696C3.85811 5.21576 3.82754 6.49246 4.17879 7.68944C4.53004 8.88642 5.24564 9.94415 6.22603 10.7155C4.54611 11.3885 3.08032 12.5048 1.98492 13.9454C0.88953 15.386 0.205595 17.0968 0.00603184 18.8955C-0.00841357 19.0268 0.00314838 19.1597 0.0400573 19.2866C0.0769662 19.4134 0.138499 19.5317 0.221143 19.6348C0.388051 19.843 0.630815 19.9763 0.896032 20.0055C1.16125 20.0347 1.42719 19.9573 1.63536 19.7904C1.84352 19.6235 1.97686 19.3807 2.00603 19.1155C2.22562 17.1607 3.15772 15.3553 4.62425 14.0443C6.09078 12.7333 7.98893 12.0085 9.95603 12.0085C11.9231 12.0085 13.8213 12.7333 15.2878 14.0443C16.7543 15.3553 17.6864 17.1607 17.906 19.1155C17.9332 19.3612 18.0505 19.5882 18.2351 19.7525C18.4198 19.9169 18.6588 20.007 18.906 20.0055H19.016C19.2782 19.9753 19.5178 19.8428 19.6826 19.6367C19.8474 19.4307 19.9241 19.1679 19.896 18.9055C19.6955 17.1017 19.0079 15.3865 17.9069 13.9437C16.8059 12.5009 15.3329 11.385 13.646 10.7155ZM9.93603 10.0055C9.14491 10.0055 8.37155 9.7709 7.71375 9.33137C7.05595 8.89185 6.54326 8.26713 6.24051 7.53623C5.93776 6.80533 5.85855 6.00106 6.01289 5.22513C6.16723 4.44921 6.54819 3.73648 7.1076 3.17707C7.66701 2.61766 8.37975 2.2367 9.15567 2.08235C9.93159 1.92801 10.7359 2.00723 11.4668 2.30998C12.1977 2.61273 12.8224 3.12542 13.2619 3.78321C13.7014 4.44101 13.936 5.21437 13.936 6.0055C13.936 7.06636 13.5146 8.08378 12.7645 8.83392C12.0143 9.58407 10.9969 10.0055 9.93603 10.0055Z" fill="#656C75"/>
<mask id="path-2-outside-1_34_3" maskUnits="userSpaceOnUse" x="12" y="11.9814" width="10" height="11" fill="black">
<rect fill="white" x="12" y="11.9814" width="10" height="11"/>
<path d="M20.8022 16.3394C21.6392 14.0453 19.6862 11.9408 17.4541 13.7446L17.1041 14.0453L16.6171 13.7446C13.548 11.6401 12.432 14.3459 13.269 16.3394C13.6761 17.3088 13.8601 18.3567 14.1061 19.1562C14.352 19.9557 14.9804 21.1566 15.8673 20.96C16.7695 20.76 16.7225 19.5862 17.1041 18.7959L17.1751 18.8555C17.5567 19.6458 17.389 20.76 18.2912 20.96C19.1781 21.1566 19.7193 19.9557 19.9652 19.1562C20.2111 18.3567 20.3557 17.3362 20.8022 16.3394Z"/>
</mask>
<path d="M20.8022 16.3394C21.6392 14.0453 19.6862 11.9408 17.4541 13.7446L17.1041 14.0453L16.6171 13.7446C13.548 11.6401 12.432 14.3459 13.269 16.3394C13.6761 17.3088 13.8601 18.3567 14.1061 19.1562C14.352 19.9557 14.9804 21.1566 15.8673 20.96C16.7695 20.76 16.7225 19.5862 17.1041 18.7959L17.1751 18.8555C17.5567 19.6458 17.389 20.76 18.2912 20.96C19.1781 21.1566 19.7193 19.9557 19.9652 19.1562C20.2111 18.3567 20.3557 17.3362 20.8022 16.3394Z" fill="#656C75"/>
<path d="M17.4541 13.7446L16.8256 12.9669C16.8178 12.9731 16.8102 12.9795 16.8026 12.986L17.4541 13.7446ZM20.8022 16.3394L21.7148 16.7482C21.7245 16.7265 21.7335 16.7044 21.7416 16.6821L20.8022 16.3394ZM19.9652 19.1562L19.0094 18.8622L19.0094 18.8622L19.9652 19.1562ZM18.2912 20.96L18.5076 19.9837L18.2912 20.96ZM17.1751 18.8555L18.0757 18.4208C18.0141 18.2932 17.9261 18.1802 17.8176 18.0892L17.1751 18.8555ZM16.6171 13.7446L16.0516 14.5693C16.0648 14.5784 16.0782 14.5871 16.0918 14.5955L16.6171 13.7446ZM13.269 16.3394L12.347 16.7265L12.347 16.7265L13.269 16.3394ZM14.1061 19.1562L15.0619 18.8622V18.8622L14.1061 19.1562ZM15.8673 20.96L15.6508 19.9837L15.8673 20.96ZM17.1041 18.7959L17.7465 18.0297C17.5102 17.8315 17.1956 17.7535 16.894 17.8183C16.5924 17.883 16.3376 18.0834 16.2035 18.3612L17.1041 18.7959ZM17.1041 14.0453L16.5787 14.8961C16.9492 15.1249 17.4252 15.0876 17.7556 14.8039L17.1041 14.0453ZM18.0827 14.5224C18.5129 14.1747 18.8542 14.0751 19.079 14.0655C19.2956 14.0563 19.4719 14.1261 19.6157 14.2536C19.9166 14.5203 20.1672 15.1623 19.8628 15.9966L21.7416 16.6821C22.2742 15.2223 21.9668 13.665 20.9424 12.7569C20.4236 12.297 19.7454 12.0355 18.9942 12.0673C18.2512 12.0988 17.5114 12.4126 16.8256 12.9669L18.0827 14.5224ZM19.8896 15.9306C19.632 16.5057 19.4676 17.0737 19.3397 17.574C19.2026 18.1096 19.1236 18.491 19.0094 18.8622L20.921 19.4502C21.0527 19.022 21.1689 18.4934 21.2773 18.0696C21.3947 17.6105 21.5259 17.1699 21.7148 16.7482L19.8896 15.9306ZM19.0094 18.8622C18.8984 19.2228 18.7415 19.597 18.5636 19.8382C18.4773 19.9553 18.4223 19.9909 18.4148 19.9949C18.4146 19.9951 18.418 19.9931 18.4252 19.9907C18.4324 19.9881 18.4422 19.9855 18.4539 19.9836C18.48 19.9796 18.5001 19.9821 18.5076 19.9837L18.0748 21.9363C19.0967 22.1629 19.8067 21.5225 20.1735 21.025C20.5494 20.5151 20.786 19.889 20.921 19.4502L19.0094 18.8622ZM18.5076 19.9837C18.5036 19.9828 18.5427 19.9986 18.5676 20.0295C18.5716 20.0344 18.5417 19.9978 18.4971 19.8465C18.4474 19.6778 18.4218 19.533 18.3565 19.2582C18.3004 19.0227 18.2196 18.719 18.0757 18.4208L16.2746 19.2903C16.3214 19.3873 16.3627 19.5191 16.4108 19.7211C16.4494 19.8837 16.5099 20.1782 16.5787 20.4118C16.6527 20.6628 16.7738 20.9917 17.012 21.2865C17.2712 21.6072 17.6277 21.8372 18.0748 21.9363L18.5076 19.9837ZM17.1826 12.9199C16.3231 12.3305 15.4894 11.9988 14.7028 11.9821C13.8766 11.9645 13.1868 12.299 12.7134 12.8611C11.837 13.9018 11.8359 15.5092 12.347 16.7265L14.1911 15.9522C13.8652 15.176 14.0036 14.4339 14.2432 14.1494C14.3278 14.0489 14.4402 13.977 14.6602 13.9817C14.9199 13.9872 15.3766 14.1065 16.0516 14.5693L17.1826 12.9199ZM12.347 16.7265C12.5234 17.1466 12.6572 17.5978 12.7812 18.067C12.8975 18.5074 13.0198 19.0261 13.1503 19.4502L15.0619 18.8622C14.9464 18.4869 14.8537 18.0819 14.7148 17.5561C14.5835 17.0591 14.4217 16.5016 14.1911 15.9522L12.347 16.7265ZM13.1503 19.4502C13.2948 19.9203 13.5607 20.5474 13.9636 21.0541C14.3497 21.5396 15.0781 22.1592 16.0837 21.9363L15.6508 19.9837C15.7696 19.9574 15.7403 20.0749 15.529 19.8092C15.3345 19.5647 15.1632 19.1916 15.0619 18.8622L13.1503 19.4502ZM16.0837 21.9363C17.0532 21.7214 17.4398 20.9488 17.6228 20.4351C17.7122 20.1845 17.7854 19.9012 17.8391 19.7112C17.9008 19.4926 17.95 19.3437 18.0046 19.2307L16.2035 18.3612C16.0673 18.6433 15.9793 18.9375 15.9143 19.1676C15.8413 19.4262 15.7984 19.5969 15.739 19.7636C15.6822 19.9227 15.6412 19.9826 15.6268 19.9996C15.6231 20.0039 15.6275 19.9979 15.6399 19.9903C15.6528 19.9823 15.6594 19.9818 15.6508 19.9837L16.0837 21.9363ZM17.8176 18.0892L17.7465 18.0297L16.4616 19.5622L16.5326 19.6218L17.8176 18.0892ZM16.8026 12.986L16.4525 13.2866L17.7556 14.8039L18.1056 14.5033L16.8026 12.986ZM17.6294 13.1944L17.1425 12.8937L16.0918 14.5955L16.5787 14.8961L17.6294 13.1944Z" fill="white" mask="url(#path-2-outside-1_34_3)"/>
</svg>
