<svg width="27" height="34" viewBox="0 0 27 34" fill="none" xmlns="http://www.w3.org/2000/svg">
<path d="M22.9167 0C24.9877 0 26.6667 1.67893 26.6667 3.75V29.591C26.6667 31.6621 24.9877 33.341 22.9167 33.341H3.75C1.67893 33.341 0 31.6621 0 29.591V3.75C0 1.76523 1.54194 0.140592 3.49325 0.00865141L3.75 0H22.9167ZM25 23.3333H2V29.591C2 30.2813 2.55964 30.841 3.25 30.841H23.75C24.4404 30.841 25 30.2813 25 29.591V23.3333ZM6.25215 25.8333H20.4167C21.107 25.8333 21.6667 26.393 21.6667 27.0833C21.6667 27.7162 21.1964 28.2391 20.5863 28.3219L20.4167 28.3333H6.25215C5.56179 28.3333 5.00215 27.7737 5.00215 27.0833C5.00215 26.4505 5.4724 25.9275 6.08253 25.8447L6.25215 25.8333Z" fill="#4FAFD9"/>
<path d="M2 4C2 3.44772 2.44772 3 3 3H24C24.5523 3 25 3.44772 25 4V21H2V4Z" fill="#232223"/>
<g filter="url(#filter0_bd_16_228)">
<path d="M12.1831 16H15.8169C18.6777 16 21 17.4274 21 19.1903V21H7V19.1903C7 17.4294 9.31902 16 12.1831 16Z" fill="#4FAFD9"/>
<path d="M12.1831 16H15.8169C18.6777 16 21 17.4274 21 19.1903V21H7V19.1903C7 17.4294 9.31902 16 12.1831 16Z" stroke="#4FAFD9"/>
</g>
<path d="M18 8.02827V10.7125C18 12.9381 16.21 14.7407 14 14.7407C11.79 14.7407 10 12.9381 10 10.7125V8.02827C10 5.80264 11.79 4 14 4C16.21 4 18 5.80264 18 8.02827Z" fill="#4FAFD9"/>
<defs>
<filter id="filter0_bd_16_228" x="2" y="11" width="24" height="16" filterUnits="userSpaceOnUse" color-interpolation-filters="sRGB">
<feFlood flood-opacity="0" result="BackgroundImageFix"/>
<feGaussianBlur in="BackgroundImage" stdDeviation="2.5"/>
<feComposite in2="SourceAlpha" operator="in" result="effect1_backgroundBlur_16_228"/>
<feColorMatrix in="SourceAlpha" type="matrix" values="0 0 0 0 0 0 0 0 0 0 0 0 0 0 0 0 0 0 127 0" result="hardAlpha"/>
<feOffset dy="4"/>
<feGaussianBlur stdDeviation="1"/>
<feComposite in2="hardAlpha" operator="out"/>
<feColorMatrix type="matrix" values="0 0 0 0 0 0 0 0 0 0 0 0 0 0 0 0 0 0 0.05 0"/>
<feBlend mode="normal" in2="effect1_backgroundBlur_16_228" result="effect2_dropShadow_16_228"/>
<feBlend mode="normal" in="SourceGraphic" in2="effect2_dropShadow_16_228" result="shape"/>
</filter>
</defs>
</svg>
