<svg width="27" height="34" viewBox="0 0 27 34" fill="none" xmlns="http://www.w3.org/2000/svg">
<path d="M22.9167 0C24.9877 0 26.6667 1.67893 26.6667 3.75V29.591C26.6667 31.6621 24.9877 33.341 22.9167 33.341H3.75C1.67893 33.341 0 31.6621 0 29.591V3.75C0 1.76523 1.54194 0.140592 3.49325 0.00865142L3.75 0H22.9167ZM24.1667 23.3333H2.5V29.591C2.5 30.2813 3.05964 30.841 3.75 30.841H22.9167C23.607 30.841 24.1667 30.2813 24.1667 29.591V23.3333ZM6.25215 25.8333H20.4167C21.107 25.8333 21.6667 26.393 21.6667 27.0833C21.6667 27.7162 21.1964 28.2391 20.5863 28.3219L20.4167 28.3333H6.25215C5.56179 28.3333 5.00215 27.7737 5.00215 27.0833C5.00215 26.4505 5.4724 25.9275 6.08253 25.8447L6.25215 25.8333H20.4167H6.25215ZM22.9167 2.5H3.75L3.58038 2.51141C2.97026 2.59418 2.5 3.11717 2.5 3.75V20.8333H6.66667V17.0759C6.66667 15.9972 7.48646 15.11 8.53699 15.0033L8.75 14.9925H17.9167C18.9953 14.9925 19.8826 15.8123 19.9892 16.8629L20 17.0759V20.8333H24.1667V3.75C24.1667 3.05964 23.607 2.5 22.9167 2.5ZM17.5 17.4925H9.16667V20.8333H17.5V17.4925ZM13.3333 4.99254C15.6345 4.99254 17.5 6.85802 17.5 9.15921C17.5 11.4604 15.6345 13.3259 13.3333 13.3259C11.0321 13.3259 9.16667 11.4604 9.16667 9.15921C9.16667 6.85802 11.0321 4.99254 13.3333 4.99254ZM13.3333 7.49254C12.4129 7.49254 11.6667 8.23873 11.6667 9.15921C11.6667 10.0797 12.4129 10.8259 13.3333 10.8259C14.2538 10.8259 15 10.0797 15 9.15921C15 8.23873 14.2538 7.49254 13.3333 7.49254Z" fill="#FF6F7E"/>
</svg>
