<svg width="62" height="64" viewBox="0 0 62 64" fill="none" xmlns="http://www.w3.org/2000/svg">
<g filter="url(#filter0_d_16_191)">
<path d="M38 13.5009V18.4991C38 22.6434 34.6438 26 30.5 26C26.3562 26 23 22.6434 23 18.4991V13.5009C23 9.35664 26.3562 6 30.5 6C34.6438 6 38 9.35664 38 13.5009Z" fill="#4EAAB8"/>
<path d="M38 13.5009V18.4991C38 22.6434 34.6438 26 30.5 26C26.3562 26 23 22.6434 23 18.4991V13.5009C23 9.35664 26.3562 6 30.5 6C34.6438 6 38 9.35664 38 13.5009Z" stroke="#4EAAB8" stroke-width="2.26"/>
</g>
<g filter="url(#filter1_d_16_191)">
<path d="M55 51H7C5.34315 51 4 52.3431 4 54C4 55.1046 4.89543 56 6 56H56C57.1046 56 58 55.1046 58 54C58 52.3431 56.6569 51 55 51Z" fill="#4EAAB8"/>
<path d="M55 51H7C5.34315 51 4 52.3431 4 54C4 55.1046 4.89543 56 6 56H56C57.1046 56 58 55.1046 58 54C58 52.3431 56.6569 51 55 51Z" stroke="black"/>
</g>
<path d="M26 29.0707C20.0063 29.0708 15.7843 34.1429 15 36.5C14.4707 38.0906 12.8342 43.2268 11.8259 46.399C11.4161 47.6881 12.3794 49 13.7322 49H16.1715C17.0581 49 17.8389 48.4169 18.1038 47.5708C18.911 44.993 20.6069 39.881 21.1961 40.4401C21.7352 40.9518 22.3854 44.5679 22.7393 46.7791C22.8971 47.7645 23.7433 48.5 24.7412 48.5H37.4184C38.347 48.5 39.1497 47.8623 39.3793 46.9626C39.9519 44.7191 41.0291 40.8123 41.5882 40.8123C42.1488 40.8123 43.11 44.9946 43.6128 47.3809C43.8106 48.3198 44.6349 49 45.5944 49H48.2245C49.5898 49 50.5531 47.6628 50.1174 46.3689C48.9674 42.9544 47.0397 37.2805 46.5 36C44.8646 32.12 40.2222 29.6472 38 29.2751C35.2549 28.8154 31.098 29.0707 26 29.0707Z" fill="#4EAAB8" stroke="#4EAAB8"/>
<path d="M39.56 38.56C39.5667 38.6267 39.56 38.69 39.54 38.75C39.5267 38.79 39.5067 38.8233 39.48 38.85C39.46 38.8767 39.4333 38.9033 39.4 38.93C39.34 38.97 39.2667 39.0067 39.18 39.04C39.1267 39.0533 39.0733 39.0633 39.02 39.07C38.9733 39.0833 38.9233 39.0833 38.87 39.07C38.7633 39.0633 38.67 39.0233 38.59 38.95C38.4767 38.8567 38.3833 38.7533 38.31 38.64C38.2767 38.5867 38.24 38.5267 38.2 38.46C38.16 38.3933 38.1233 38.3233 38.09 38.25L36.98 36.14C36.9267 36.14 36.8733 36.1433 36.82 36.15C36.7667 36.15 36.7133 36.1533 36.66 36.16C36.52 36.1733 36.3867 36.1767 36.26 36.17C36.14 36.1633 36.0133 36.1633 35.88 36.17H35.69V37.98C35.69 38.0333 35.6867 38.0833 35.68 38.13C35.68 38.1767 35.68 38.2267 35.68 38.28C35.68 38.3133 35.6767 38.3567 35.67 38.41C35.67 38.4633 35.6667 38.5133 35.66 38.56C35.6467 38.6333 35.6167 38.71 35.57 38.79C35.5233 38.8633 35.46 38.9267 35.38 38.98C35.24 39.0667 35.07 39.09 34.87 39.05C34.7833 39.03 34.7 38.9967 34.62 38.95C34.5933 38.93 34.57 38.9067 34.55 38.88C34.53 38.8467 34.5133 38.8133 34.5 38.78C34.4867 38.7467 34.4733 38.7133 34.46 38.68C34.4533 38.64 34.4433 38.6033 34.43 38.57C34.41 38.5033 34.4 38.44 34.4 38.38V32.7C34.4 32.66 34.4 32.62 34.4 32.58C34.4067 32.5333 34.4133 32.4933 34.42 32.46C34.4267 32.3867 34.45 32.3133 34.49 32.24C34.51 32.16 34.5433 32.1033 34.59 32.07C34.63 32.03 34.69 31.9967 34.77 31.97C34.8567 31.9367 34.98 31.9233 35.14 31.93C35.44 31.9367 35.7367 31.94 36.03 31.94C36.3233 31.94 36.6167 31.9467 36.91 31.96C37.1033 31.9733 37.3067 31.9967 37.52 32.03C37.74 32.0567 37.9433 32.1067 38.13 32.18C38.25 32.2267 38.36 32.2733 38.46 32.32C38.5867 32.3933 38.6867 32.4633 38.76 32.53C38.9933 32.7433 39.17 33 39.29 33.3C39.41 33.6 39.47 33.9033 39.47 34.21C39.47 34.57 39.3833 34.9 39.21 35.2C39.0433 35.5 38.7733 35.7233 38.4 35.87C38.3867 35.8833 38.3667 35.8933 38.34 35.9C38.32 35.9 38.3033 35.9033 38.29 35.91L39.21 37.76L39.3 37.92C39.3133 37.9467 39.33 37.9767 39.35 38.01C39.37 38.0433 39.3867 38.0767 39.4 38.11C39.42 38.1433 39.4367 38.18 39.45 38.22C39.47 38.26 39.49 38.2967 39.51 38.33C39.53 38.4233 39.5467 38.5 39.56 38.56ZM37.06 35C37.18 35 37.2933 34.98 37.4 34.94C37.5133 34.8933 37.6133 34.8333 37.7 34.76C37.7933 34.6867 37.87 34.6033 37.93 34.51C37.99 34.41 38.0233 34.3033 38.03 34.19C38.0567 33.8567 37.97 33.61 37.77 33.45C37.57 33.2833 37.3067 33.1933 36.98 33.18C36.7867 33.1667 36.5733 33.16 36.34 33.16C36.1133 33.16 35.8967 33.16 35.69 33.16C35.6967 33.4333 35.6967 33.7133 35.69 34C35.69 34.28 35.69 34.6133 35.69 35H37.06Z" fill="white"/>
<defs>
<filter id="filter0_d_16_191" x="15.87" y="0.870003" width="27.26" height="32.26" filterUnits="userSpaceOnUse" color-interpolation-filters="sRGB">
<feFlood flood-opacity="0" result="BackgroundImageFix"/>
<feColorMatrix in="SourceAlpha" type="matrix" values="0 0 0 0 0 0 0 0 0 0 0 0 0 0 0 0 0 0 127 0" result="hardAlpha"/>
<feOffset dx="-1" dy="1"/>
<feGaussianBlur stdDeviation="2.5"/>
<feComposite in2="hardAlpha" operator="out"/>
<feColorMatrix type="matrix" values="0 0 0 0 0 0 0 0 0 0 0 0 0 0 0 0 0 0 0.1 0"/>
<feBlend mode="normal" in2="BackgroundImageFix" result="effect1_dropShadow_16_191"/>
<feBlend mode="normal" in="SourceGraphic" in2="effect1_dropShadow_16_191" result="shape"/>
</filter>
<filter id="filter1_d_16_191" x="0" y="51" width="62" height="13" filterUnits="userSpaceOnUse" color-interpolation-filters="sRGB">
<feFlood flood-opacity="0" result="BackgroundImageFix"/>
<feColorMatrix in="SourceAlpha" type="matrix" values="0 0 0 0 0 0 0 0 0 0 0 0 0 0 0 0 0 0 127 0" result="hardAlpha"/>
<feOffset dy="4"/>
<feGaussianBlur stdDeviation="2"/>
<feComposite in2="hardAlpha" operator="out"/>
<feColorMatrix type="matrix" values="0 0 0 0 0 0 0 0 0 0 0 0 0 0 0 0 0 0 0.25 0"/>
<feBlend mode="normal" in2="BackgroundImageFix" result="effect1_dropShadow_16_191"/>
<feBlend mode="normal" in="SourceGraphic" in2="effect1_dropShadow_16_191" result="shape"/>
</filter>
</defs>
</svg>
