<svg width="20" height="21" viewBox="0 0 20 21" fill="none" xmlns="http://www.w3.org/2000/svg">
<path d="M13.646 10.7341C14.6264 9.96271 15.342 8.90497 15.6933 7.70799C16.0445 6.51101 16.014 5.23432 15.6058 4.05552C15.1977 2.87672 14.4323 1.85444 13.4161 1.13091C12.3999 0.407369 11.1835 0.0185547 9.93603 0.0185547C8.68858 0.0185547 7.47215 0.407369 6.45596 1.13091C5.43978 1.85444 4.67438 2.87672 4.26624 4.05552C3.85811 5.23432 3.82754 6.51101 4.17879 7.70799C4.53004 8.90497 5.24564 9.96271 6.22603 10.7341C4.54611 11.4071 3.08032 12.5234 1.98492 13.964C0.88953 15.4045 0.205595 17.1154 0.00603184 18.914C-0.00841357 19.0454 0.00314838 19.1783 0.0400573 19.3051C0.0769662 19.432 0.138499 19.5503 0.221143 19.6534C0.388051 19.8615 0.630815 19.9949 0.896032 20.024C1.16125 20.0532 1.42719 19.9758 1.63536 19.8089C1.84352 19.642 1.97686 19.3993 2.00603 19.1341C2.22562 17.1792 3.15772 15.3739 4.62425 14.0628C6.09078 12.7518 7.98893 12.0271 9.95603 12.0271C11.9231 12.0271 13.8213 12.7518 15.2878 14.0628C16.7543 15.3739 17.6864 17.1792 17.906 19.1341C17.9332 19.3798 18.0505 19.6067 18.2351 19.7711C18.4198 19.9354 18.6588 20.0255 18.906 20.024H19.016C19.2782 19.9939 19.5178 19.8613 19.6826 19.6553C19.8474 19.4493 19.9241 19.1864 19.896 18.924C19.6955 17.1203 19.0079 15.405 17.9069 13.9623C16.8059 12.5195 15.3329 11.4035 13.646 10.7341ZM9.93603 10.0241C9.14491 10.0241 8.37155 9.78945 7.71375 9.34993C7.05595 8.9104 6.54326 8.28569 6.24051 7.55478C5.93776 6.82388 5.85855 6.01961 6.01289 5.24369C6.16723 4.46777 6.54819 3.75503 7.1076 3.19562C7.66701 2.63621 8.37975 2.25525 9.15567 2.10091C9.93159 1.94657 10.7359 2.02578 11.4668 2.32853C12.1977 2.63128 12.8224 3.14397 13.2619 3.80177C13.7014 4.45957 13.936 5.23293 13.936 6.02405C13.936 7.08492 13.5146 8.10233 12.7645 8.85248C12.0143 9.60262 10.9969 10.0241 9.93603 10.0241Z" fill="#FF707F"/>
</svg>
